<?xml version="1.0" encoding="UTF-8" standalone="no"?>
<!DOCTYPE svg PUBLIC "-//W3C//DTD SVG 1.1//EN"
 "http://www.w3.org/Graphics/SVG/1.1/DTD/svg11.dtd">
<!-- Generated by graphviz version 2.47.0 (20210316.0004)
 -->
<!-- Title: dbml Pages: 1 -->
<svg width="1899pt" height="3040pt"
 viewBox="0.00 0.00 1898.68 3040.49" xmlns="http://www.w3.org/2000/svg" xmlns:xlink="http://www.w3.org/1999/xlink">
<g id="graph0" class="graph" transform="scale(1 1) rotate(0) translate(4 3036.49)">
<title>dbml</title>
<!-- Cart -->
<g id="Cart" class="node">
<title>Cart</title>
<ellipse fill="none" stroke="black" stroke-width="0" cx="982.82" cy="-1555.53" rx="289.41" ry="172.57"/>
<polygon fill="#1d71b8" stroke="transparent" points="780.82,-1615.53 780.82,-1675.53 1185.82,-1675.53 1185.82,-1615.53 780.82,-1615.53"/>
<polygon fill="none" stroke="#29235c" points="780.82,-1615.53 780.82,-1675.53 1185.82,-1675.53 1185.82,-1615.53 780.82,-1615.53"/>
<text text-anchor="start" x="890.85" y="-1636.73" font-family="Helvetica,sans-Serif" font-weight="bold" font-size="32.00" fill="#ffffff"> &#160;&#160;&#160;&#160;&#160;&#160;Cart &#160;&#160;&#160;&#160;&#160;&#160;</text>
<polygon fill="#e7e2dd" stroke="transparent" points="780.82,-1555.53 780.82,-1615.53 1185.82,-1615.53 1185.82,-1555.53 780.82,-1555.53"/>
<polygon fill="none" stroke="#29235c" points="780.82,-1555.53 780.82,-1615.53 1185.82,-1615.53 1185.82,-1555.53 780.82,-1555.53"/>
<text text-anchor="start" x="791.82" y="-1576.73" font-family="Helvetica,sans-Serif" font-weight="bold" font-size="32.00" fill="#29235c">id</text>
<text text-anchor="start" x="816.71" y="-1576.73" font-family="Helvetica,sans-Serif" font-size="32.00" fill="#29235c"> &#160;&#160;&#160;</text>
<text text-anchor="start" x="1032.6" y="-1576.73" font-family="Helvetica,sans-Serif" font-style="italic" font-size="32.00" fill="#29235c">INTEGER</text>
<polygon fill="#e7e2dd" stroke="transparent" points="780.82,-1495.53 780.82,-1555.53 1185.82,-1555.53 1185.82,-1495.53 780.82,-1495.53"/>
<polygon fill="none" stroke="#29235c" points="780.82,-1495.53 780.82,-1555.53 1185.82,-1555.53 1185.82,-1495.53 780.82,-1495.53"/>
<text text-anchor="start" x="791.82" y="-1515.73" font-family="Helvetica,sans-Serif" font-size="32.00" fill="#29235c">customer_id &#160;&#160;&#160;</text>
<text text-anchor="start" x="1032.6" y="-1516.73" font-family="Helvetica,sans-Serif" font-style="italic" font-size="32.00" fill="#29235c">INTEGER</text>
<polygon fill="#e7e2dd" stroke="transparent" points="780.82,-1435.53 780.82,-1495.53 1185.82,-1495.53 1185.82,-1435.53 780.82,-1435.53"/>
<polygon fill="none" stroke="#29235c" points="780.82,-1435.53 780.82,-1495.53 1185.82,-1495.53 1185.82,-1435.53 780.82,-1435.53"/>
<text text-anchor="start" x="791.66" y="-1455.73" font-family="Helvetica,sans-Serif" font-size="32.00" fill="#29235c">created_date &#160;&#160;&#160;</text>
<text text-anchor="start" x="1013.43" y="-1456.73" font-family="Helvetica,sans-Serif" font-style="italic" font-size="32.00" fill="#29235c">DATETIME</text>
<polygon fill="none" stroke="#29235c" stroke-width="2" points="779.32,-1434.53 779.32,-1676.53 1186.32,-1676.53 1186.32,-1434.53 779.32,-1434.53"/>
</g>
<!-- Customer -->
<g id="Customer" class="node">
<title>Customer</title>
<ellipse fill="none" stroke="black" stroke-width="0" cx="1627.63" cy="-1761.53" rx="263.09" ry="214.92"/>
<polygon fill="#1d71b8" stroke="transparent" points="1443.63,-1851.53 1443.63,-1911.53 1811.63,-1911.53 1811.63,-1851.53 1443.63,-1851.53"/>
<polygon fill="none" stroke="#29235c" points="1443.63,-1851.53 1443.63,-1911.53 1811.63,-1911.53 1811.63,-1851.53 1443.63,-1851.53"/>
<text text-anchor="start" x="1496.05" y="-1872.73" font-family="Helvetica,sans-Serif" font-weight="bold" font-size="32.00" fill="#ffffff"> &#160;&#160;&#160;&#160;&#160;&#160;Customer &#160;&#160;&#160;&#160;&#160;&#160;</text>
<polygon fill="#e7e2dd" stroke="transparent" points="1443.63,-1791.53 1443.63,-1851.53 1811.63,-1851.53 1811.63,-1791.53 1443.63,-1791.53"/>
<polygon fill="none" stroke="#29235c" points="1443.63,-1791.53 1443.63,-1851.53 1811.63,-1851.53 1811.63,-1791.53 1443.63,-1791.53"/>
<text text-anchor="start" x="1454.63" y="-1812.73" font-family="Helvetica,sans-Serif" font-weight="bold" font-size="32.00" fill="#29235c">id</text>
<text text-anchor="start" x="1479.52" y="-1812.73" font-family="Helvetica,sans-Serif" font-size="32.00" fill="#29235c"> &#160;&#160;&#160;</text>
<text text-anchor="start" x="1658.42" y="-1812.73" font-family="Helvetica,sans-Serif" font-style="italic" font-size="32.00" fill="#29235c">INTEGER</text>
<polygon fill="#e7e2dd" stroke="transparent" points="1443.63,-1731.53 1443.63,-1791.53 1811.63,-1791.53 1811.63,-1731.53 1443.63,-1731.53"/>
<polygon fill="none" stroke="#29235c" points="1443.63,-1731.53 1443.63,-1791.53 1811.63,-1791.53 1811.63,-1731.53 1443.63,-1731.53"/>
<text text-anchor="start" x="1454.34" y="-1751.73" font-family="Helvetica,sans-Serif" font-size="32.00" fill="#29235c">name &#160;&#160;&#160;</text>
<text text-anchor="start" x="1569.59" y="-1752.73" font-family="Helvetica,sans-Serif" font-style="italic" font-size="32.00" fill="#29235c">VARCHAR(100)</text>
<polygon fill="#e7e2dd" stroke="transparent" points="1443.63,-1671.53 1443.63,-1731.53 1811.63,-1731.53 1811.63,-1671.53 1443.63,-1671.53"/>
<polygon fill="none" stroke="#29235c" points="1443.63,-1671.53 1443.63,-1731.53 1811.63,-1731.53 1811.63,-1671.53 1443.63,-1671.53"/>
<text text-anchor="start" x="1454.63" y="-1691.73" font-family="Helvetica,sans-Serif" font-size="32.00" fill="#29235c">email &#160;&#160;&#160;</text>
<text text-anchor="start" x="1569.54" y="-1692.73" font-family="Helvetica,sans-Serif" font-style="italic" font-size="32.00" fill="#29235c">VARCHAR(100)</text>
<polygon fill="#e7e2dd" stroke="transparent" points="1443.63,-1611.53 1443.63,-1671.53 1811.63,-1671.53 1811.63,-1611.53 1443.63,-1611.53"/>
<polygon fill="none" stroke="#29235c" points="1443.63,-1611.53 1443.63,-1671.53 1811.63,-1671.53 1811.63,-1611.53 1443.63,-1611.53"/>
<text text-anchor="start" x="1454.63" y="-1631.73" font-family="Helvetica,sans-Serif" font-size="32.00" fill="#29235c">balance &#160;&#160;&#160;</text>
<text text-anchor="start" x="1697.51" y="-1632.73" font-family="Helvetica,sans-Serif" font-style="italic" font-size="32.00" fill="#29235c">FLOAT</text>
<polygon fill="none" stroke="#29235c" stroke-width="2" points="1442.63,-1610.53 1442.63,-1912.53 1812.63,-1912.53 1812.63,-1610.53 1442.63,-1610.53"/>
</g>
<!-- Cart&#45;&gt;Customer -->
<!-- Cart&#45;&gt;Customer -->
<g id="edge2" class="edge">
<title>Cart:e&#45;&gt;Customer:w</title>
<path fill="none" stroke="#29235c" stroke-width="3" d="M1186.82,-1525.53C1357.13,-1525.53 1272.41,-1809.52 1432.27,-1821.17"/>
<polygon fill="#29235c" stroke="#29235c" stroke-width="3" points="1432.52,-1824.68 1442.63,-1821.53 1432.77,-1817.68 1432.52,-1824.68"/>
<text text-anchor="middle" x="1436.41" y="-1792.73" font-family="Helvetica,sans-Serif" font-size="32.00" fill="#29235c">*</text>
<text text-anchor="middle" x="1195.71" y="-1496.73" font-family="Helvetica,sans-Serif" font-size="32.00" fill="#29235c">1</text>
</g>
<!-- CartItem -->
<g id="CartItem" class="node">
<title>CartItem</title>
<ellipse fill="none" stroke="black" stroke-width="0" cx="300.52" cy="-1346.53" rx="248.8" ry="257.27"/>
<polygon fill="#1d71b8" stroke="transparent" points="126.52,-1466.53 126.52,-1526.53 474.52,-1526.53 474.52,-1466.53 126.52,-1466.53"/>
<polygon fill="none" stroke="#29235c" points="126.52,-1466.53 126.52,-1526.53 474.52,-1526.53 474.52,-1466.53 126.52,-1466.53"/>
<text text-anchor="start" x="176.94" y="-1487.73" font-family="Helvetica,sans-Serif" font-weight="bold" font-size="32.00" fill="#ffffff"> &#160;&#160;&#160;&#160;&#160;&#160;CartItem &#160;&#160;&#160;&#160;&#160;&#160;</text>
<polygon fill="#e7e2dd" stroke="transparent" points="126.52,-1406.53 126.52,-1466.53 474.52,-1466.53 474.52,-1406.53 126.52,-1406.53"/>
<polygon fill="none" stroke="#29235c" points="126.52,-1406.53 126.52,-1466.53 474.52,-1466.53 474.52,-1406.53 126.52,-1406.53"/>
<text text-anchor="start" x="137.52" y="-1427.73" font-family="Helvetica,sans-Serif" font-weight="bold" font-size="32.00" fill="#29235c">id</text>
<text text-anchor="start" x="162.41" y="-1427.73" font-family="Helvetica,sans-Serif" font-size="32.00" fill="#29235c"> &#160;&#160;&#160;</text>
<text text-anchor="start" x="321.3" y="-1427.73" font-family="Helvetica,sans-Serif" font-style="italic" font-size="32.00" fill="#29235c">INTEGER</text>
<polygon fill="#e7e2dd" stroke="transparent" points="126.52,-1346.53 126.52,-1406.53 474.52,-1406.53 474.52,-1346.53 126.52,-1346.53"/>
<polygon fill="none" stroke="#29235c" points="126.52,-1346.53 126.52,-1406.53 474.52,-1406.53 474.52,-1346.53 126.52,-1346.53"/>
<text text-anchor="start" x="137.52" y="-1366.73" font-family="Helvetica,sans-Serif" font-size="32.00" fill="#29235c">cart_id &#160;&#160;&#160;</text>
<text text-anchor="start" x="321.3" y="-1367.73" font-family="Helvetica,sans-Serif" font-style="italic" font-size="32.00" fill="#29235c">INTEGER</text>
<polygon fill="#e7e2dd" stroke="transparent" points="126.52,-1286.53 126.52,-1346.53 474.52,-1346.53 474.52,-1286.53 126.52,-1286.53"/>
<polygon fill="none" stroke="#29235c" points="126.52,-1286.53 126.52,-1346.53 474.52,-1346.53 474.52,-1286.53 126.52,-1286.53"/>
<text text-anchor="start" x="137.05" y="-1306.73" font-family="Helvetica,sans-Serif" font-size="32.00" fill="#29235c">product_id &#160;&#160;&#160;</text>
<text text-anchor="start" x="321.41" y="-1307.73" font-family="Helvetica,sans-Serif" font-style="italic" font-size="32.00" fill="#29235c">INTEGER</text>
<polygon fill="#e7e2dd" stroke="transparent" points="126.52,-1226.53 126.52,-1286.53 474.52,-1286.53 474.52,-1226.53 126.52,-1226.53"/>
<polygon fill="none" stroke="#29235c" points="126.52,-1226.53 126.52,-1286.53 474.52,-1286.53 474.52,-1226.53 126.52,-1226.53"/>
<text text-anchor="start" x="137.52" y="-1246.73" font-family="Helvetica,sans-Serif" font-size="32.00" fill="#29235c">quantity &#160;&#160;&#160;</text>
<text text-anchor="start" x="321.3" y="-1247.73" font-family="Helvetica,sans-Serif" font-style="italic" font-size="32.00" fill="#29235c">INTEGER</text>
<polygon fill="#e7e2dd" stroke="transparent" points="126.52,-1166.53 126.52,-1226.53 474.52,-1226.53 474.52,-1166.53 126.52,-1166.53"/>
<polygon fill="none" stroke="#29235c" points="126.52,-1166.53 126.52,-1226.53 474.52,-1226.53 474.52,-1166.53 126.52,-1166.53"/>
<text text-anchor="start" x="137.52" y="-1186.73" font-family="Helvetica,sans-Serif" font-size="32.00" fill="#29235c">amount &#160;&#160;&#160;</text>
<text text-anchor="start" x="360.4" y="-1187.73" font-family="Helvetica,sans-Serif" font-style="italic" font-size="32.00" fill="#29235c">FLOAT</text>
<polygon fill="none" stroke="#29235c" stroke-width="2" points="125.52,-1165.53 125.52,-1527.53 475.52,-1527.53 475.52,-1165.53 125.52,-1165.53"/>
</g>
<!-- CartItem&#45;&gt;Cart -->
<!-- CartItem&#45;&gt;Cart -->
<g id="edge4" class="edge">
<title>CartItem:e&#45;&gt;Cart:w</title>
<path fill="none" stroke="#29235c" stroke-width="3" d="M475.52,-1376.53C636.07,-1376.53 616.68,-1576.65 769.5,-1585.25"/>
<polygon fill="#29235c" stroke="#29235c" stroke-width="3" points="769.72,-1588.76 779.82,-1585.53 769.92,-1581.76 769.72,-1588.76"/>
<text text-anchor="middle" x="786.04" y="-1556.73" font-family="Helvetica,sans-Serif" font-size="32.00" fill="#29235c">*</text>
<text text-anchor="middle" x="466.63" y="-1347.73" font-family="Helvetica,sans-Serif" font-size="32.00" fill="#29235c">1</text>
</g>
<!-- Product -->
<g id="Product" class="node">
<title>Product</title>
<ellipse fill="none" stroke="black" stroke-width="0" cx="982.82" cy="-940.53" rx="280.94" ry="214.92"/>
<polygon fill="#1d71b8" stroke="transparent" points="786.82,-1030.53 786.82,-1090.53 1179.82,-1090.53 1179.82,-1030.53 786.82,-1030.53"/>
<polygon fill="none" stroke="#29235c" points="786.82,-1030.53 786.82,-1090.53 1179.82,-1090.53 1179.82,-1030.53 786.82,-1030.53"/>
<text text-anchor="start" x="865.94" y="-1051.73" font-family="Helvetica,sans-Serif" font-weight="bold" font-size="32.00" fill="#ffffff"> &#160;&#160;&#160;&#160;&#160;&#160;Product &#160;&#160;&#160;&#160;&#160;&#160;</text>
<polygon fill="#e7e2dd" stroke="transparent" points="786.82,-970.53 786.82,-1030.53 1179.82,-1030.53 1179.82,-970.53 786.82,-970.53"/>
<polygon fill="none" stroke="#29235c" points="786.82,-970.53 786.82,-1030.53 1179.82,-1030.53 1179.82,-970.53 786.82,-970.53"/>
<text text-anchor="start" x="797.82" y="-991.73" font-family="Helvetica,sans-Serif" font-weight="bold" font-size="32.00" fill="#29235c">id</text>
<text text-anchor="start" x="822.71" y="-991.73" font-family="Helvetica,sans-Serif" font-size="32.00" fill="#29235c"> &#160;&#160;&#160;</text>
<text text-anchor="start" x="1026.6" y="-991.73" font-family="Helvetica,sans-Serif" font-style="italic" font-size="32.00" fill="#29235c">INTEGER</text>
<polygon fill="#e7e2dd" stroke="transparent" points="786.82,-910.53 786.82,-970.53 1179.82,-970.53 1179.82,-910.53 786.82,-910.53"/>
<polygon fill="none" stroke="#29235c" points="786.82,-910.53 786.82,-970.53 1179.82,-970.53 1179.82,-910.53 786.82,-910.53"/>
<text text-anchor="start" x="797.82" y="-930.73" font-family="Helvetica,sans-Serif" font-size="32.00" fill="#29235c">name &#160;&#160;&#160;</text>
<text text-anchor="start" x="937.72" y="-931.73" font-family="Helvetica,sans-Serif" font-style="italic" font-size="32.00" fill="#29235c">VARCHAR(100)</text>
<polygon fill="#e7e2dd" stroke="transparent" points="786.82,-850.53 786.82,-910.53 1179.82,-910.53 1179.82,-850.53 786.82,-850.53"/>
<polygon fill="none" stroke="#29235c" points="786.82,-850.53 786.82,-910.53 1179.82,-910.53 1179.82,-850.53 786.82,-850.53"/>
<text text-anchor="start" x="797.68" y="-870.73" font-family="Helvetica,sans-Serif" font-size="32.00" fill="#29235c">category &#160;&#160;&#160;</text>
<text text-anchor="start" x="955.66" y="-871.73" font-family="Helvetica,sans-Serif" font-style="italic" font-size="32.00" fill="#29235c">VARCHAR(50)</text>
<polygon fill="#e7e2dd" stroke="transparent" points="786.82,-790.53 786.82,-850.53 1179.82,-850.53 1179.82,-790.53 786.82,-790.53"/>
<polygon fill="none" stroke="#29235c" points="786.82,-790.53 786.82,-850.53 1179.82,-850.53 1179.82,-790.53 786.82,-790.53"/>
<text text-anchor="start" x="797.82" y="-810.73" font-family="Helvetica,sans-Serif" font-size="32.00" fill="#29235c">unit_price &#160;&#160;&#160;</text>
<text text-anchor="start" x="1065.7" y="-811.73" font-family="Helvetica,sans-Serif" font-style="italic" font-size="32.00" fill="#29235c">FLOAT</text>
<polygon fill="none" stroke="#29235c" stroke-width="2" points="785.32,-789.53 785.32,-1091.53 1180.32,-1091.53 1180.32,-789.53 785.32,-789.53"/>
</g>
<!-- CartItem&#45;&gt;Product -->
<!-- CartItem&#45;&gt;Product -->
<g id="edge6" class="edge">
<title>CartItem:e&#45;&gt;Product:w</title>
<path fill="none" stroke="#29235c" stroke-width="3" d="M475.52,-1316.53C668.89,-1316.53 591.83,-1011.55 775.69,-1000.82"/>
<polygon fill="#29235c" stroke="#29235c" stroke-width="3" points="775.92,-1004.32 785.82,-1000.53 775.72,-997.32 775.92,-1004.32"/>
<text text-anchor="middle" x="792.04" y="-971.73" font-family="Helvetica,sans-Serif" font-size="32.00" fill="#29235c">*</text>
<text text-anchor="middle" x="466.63" y="-1287.73" font-family="Helvetica,sans-Serif" font-size="32.00" fill="#29235c">1</text>
</g>
<!-- Inventory -->
<g id="Inventory" class="node">
<title>Inventory</title>
<ellipse fill="none" stroke="black" stroke-width="0" cx="300.52" cy="-898.53" rx="288.5" ry="172.57"/>
<polygon fill="#1d71b8" stroke="transparent" points="98.52,-958.53 98.52,-1018.53 502.52,-1018.53 502.52,-958.53 98.52,-958.53"/>
<polygon fill="none" stroke="#29235c" points="98.52,-958.53 98.52,-1018.53 502.52,-1018.53 502.52,-958.53 98.52,-958.53"/>
<text text-anchor="start" x="172.47" y="-979.73" font-family="Helvetica,sans-Serif" font-weight="bold" font-size="32.00" fill="#ffffff"> &#160;&#160;&#160;&#160;&#160;&#160;Inventory &#160;&#160;&#160;&#160;&#160;&#160;</text>
<polygon fill="#e7e2dd" stroke="transparent" points="98.52,-898.53 98.52,-958.53 502.52,-958.53 502.52,-898.53 98.52,-898.53"/>
<polygon fill="none" stroke="#29235c" points="98.52,-898.53 98.52,-958.53 502.52,-958.53 502.52,-898.53 98.52,-898.53"/>
<text text-anchor="start" x="109.52" y="-919.73" font-family="Helvetica,sans-Serif" font-weight="bold" font-size="32.00" fill="#29235c">id</text>
<text text-anchor="start" x="134.41" y="-919.73" font-family="Helvetica,sans-Serif" font-size="32.00" fill="#29235c"> &#160;&#160;&#160;</text>
<text text-anchor="start" x="349.3" y="-919.73" font-family="Helvetica,sans-Serif" font-style="italic" font-size="32.00" fill="#29235c">INTEGER</text>
<polygon fill="#e7e2dd" stroke="transparent" points="98.52,-838.53 98.52,-898.53 502.52,-898.53 502.52,-838.53 98.52,-838.53"/>
<polygon fill="none" stroke="#29235c" points="98.52,-838.53 98.52,-898.53 502.52,-898.53 502.52,-838.53 98.52,-838.53"/>
<text text-anchor="start" x="109.52" y="-858.73" font-family="Helvetica,sans-Serif" font-size="32.00" fill="#29235c">product_id &#160;&#160;&#160;</text>
<text text-anchor="start" x="349.3" y="-859.73" font-family="Helvetica,sans-Serif" font-style="italic" font-size="32.00" fill="#29235c">INTEGER</text>
<polygon fill="#e7e2dd" stroke="transparent" points="98.52,-778.53 98.52,-838.53 502.52,-838.53 502.52,-778.53 98.52,-778.53"/>
<polygon fill="none" stroke="#29235c" points="98.52,-778.53 98.52,-838.53 502.52,-838.53 502.52,-778.53 98.52,-778.53"/>
<text text-anchor="start" x="109.48" y="-798.73" font-family="Helvetica,sans-Serif" font-size="32.00" fill="#29235c">stock_quantity &#160;&#160;&#160;</text>
<text text-anchor="start" x="349.41" y="-799.73" font-family="Helvetica,sans-Serif" font-style="italic" font-size="32.00" fill="#29235c">INTEGER</text>
<polygon fill="none" stroke="#29235c" stroke-width="2" points="97.52,-777.53 97.52,-1019.53 503.52,-1019.53 503.52,-777.53 97.52,-777.53"/>
</g>
<!-- Inventory&#45;&gt;Product -->
<!-- Inventory&#45;&gt;Product -->
<g id="edge8" class="edge">
<title>Inventory:e&#45;&gt;Product:w</title>
<path fill="none" stroke="#29235c" stroke-width="3" d="M503.52,-868.53C638.51,-868.53 646.96,-993.92 775.52,-1000.28"/>
<polygon fill="#29235c" stroke="#29235c" stroke-width="3" points="775.73,-1003.79 785.82,-1000.53 775.9,-996.79 775.73,-1003.79"/>
<text text-anchor="middle" x="792.04" y="-1010.13" font-family="Helvetica,sans-Serif" font-size="32.00" fill="#29235c">*</text>
<text text-anchor="middle" x="494.63" y="-839.73" font-family="Helvetica,sans-Serif" font-size="32.00" fill="#29235c">1</text>
</g>
<!-- Order -->
<g id="Order" class="node">
<title>Order</title>
<ellipse fill="none" stroke="black" stroke-width="0" cx="982.82" cy="-2109.53" rx="266.66" ry="214.92"/>
<polygon fill="#1d71b8" stroke="transparent" points="796.82,-2199.53 796.82,-2259.53 1169.82,-2259.53 1169.82,-2199.53 796.82,-2199.53"/>
<polygon fill="none" stroke="#29235c" points="796.82,-2199.53 796.82,-2259.53 1169.82,-2259.53 1169.82,-2199.53 796.82,-2199.53"/>
<text text-anchor="start" x="880.18" y="-2220.73" font-family="Helvetica,sans-Serif" font-weight="bold" font-size="32.00" fill="#ffffff"> &#160;&#160;&#160;&#160;&#160;&#160;Order &#160;&#160;&#160;&#160;&#160;&#160;</text>
<polygon fill="#e7e2dd" stroke="transparent" points="796.82,-2139.53 796.82,-2199.53 1169.82,-2199.53 1169.82,-2139.53 796.82,-2139.53"/>
<polygon fill="none" stroke="#29235c" points="796.82,-2139.53 796.82,-2199.53 1169.82,-2199.53 1169.82,-2139.53 796.82,-2139.53"/>
<text text-anchor="start" x="807.82" y="-2160.73" font-family="Helvetica,sans-Serif" font-weight="bold" font-size="32.00" fill="#29235c">id</text>
<text text-anchor="start" x="832.71" y="-2160.73" font-family="Helvetica,sans-Serif" font-size="32.00" fill="#29235c"> &#160;&#160;&#160;</text>
<text text-anchor="start" x="1016.6" y="-2160.73" font-family="Helvetica,sans-Serif" font-style="italic" font-size="32.00" fill="#29235c">INTEGER</text>
<polygon fill="#e7e2dd" stroke="transparent" points="796.82,-2079.53 796.82,-2139.53 1169.82,-2139.53 1169.82,-2079.53 796.82,-2079.53"/>
<polygon fill="none" stroke="#29235c" points="796.82,-2079.53 796.82,-2139.53 1169.82,-2139.53 1169.82,-2079.53 796.82,-2079.53"/>
<text text-anchor="start" x="807.41" y="-2099.73" font-family="Helvetica,sans-Serif" font-size="32.00" fill="#29235c">customer_id &#160;&#160;&#160;</text>
<text text-anchor="start" x="1016.71" y="-2100.73" font-family="Helvetica,sans-Serif" font-style="italic" font-size="32.00" fill="#29235c">INTEGER</text>
<polygon fill="#e7e2dd" stroke="transparent" points="796.82,-2019.53 796.82,-2079.53 1169.82,-2079.53 1169.82,-2019.53 796.82,-2019.53"/>
<polygon fill="none" stroke="#29235c" points="796.82,-2019.53 796.82,-2079.53 1169.82,-2079.53 1169.82,-2019.53 796.82,-2019.53"/>
<text text-anchor="start" x="807.67" y="-2039.73" font-family="Helvetica,sans-Serif" font-size="32.00" fill="#29235c">order_date &#160;&#160;&#160;</text>
<text text-anchor="start" x="997.43" y="-2040.73" font-family="Helvetica,sans-Serif" font-style="italic" font-size="32.00" fill="#29235c">DATETIME</text>
<polygon fill="#e7e2dd" stroke="transparent" points="796.82,-1959.53 796.82,-2019.53 1169.82,-2019.53 1169.82,-1959.53 796.82,-1959.53"/>
<polygon fill="none" stroke="#29235c" points="796.82,-1959.53 796.82,-2019.53 1169.82,-2019.53 1169.82,-1959.53 796.82,-1959.53"/>
<text text-anchor="start" x="807.82" y="-1979.73" font-family="Helvetica,sans-Serif" font-size="32.00" fill="#29235c">amount_total &#160;&#160;&#160;</text>
<text text-anchor="start" x="1055.7" y="-1980.73" font-family="Helvetica,sans-Serif" font-style="italic" font-size="32.00" fill="#29235c">FLOAT</text>
<polygon fill="none" stroke="#29235c" stroke-width="2" points="795.32,-1958.53 795.32,-2260.53 1170.32,-2260.53 1170.32,-1958.53 795.32,-1958.53"/>
</g>
<!-- Order&#45;&gt;Customer -->
<!-- Order&#45;&gt;Customer -->
<g id="edge10" class="edge">
<title>Order:e&#45;&gt;Customer:w</title>
<path fill="none" stroke="#29235c" stroke-width="3" d="M1170.82,-2109.53C1343.39,-2109.53 1269.66,-1832.67 1432.61,-1821.86"/>
<polygon fill="#29235c" stroke="#29235c" stroke-width="3" points="1432.75,-1825.36 1442.63,-1821.53 1432.53,-1818.36 1432.75,-1825.36"/>
<text text-anchor="middle" x="1436.41" y="-1831.13" font-family="Helvetica,sans-Serif" font-size="32.00" fill="#29235c">*</text>
<text text-anchor="middle" x="1179.71" y="-2109.53" font-family="Helvetica,sans-Serif" font-size="32.00" fill="#29235c">1</text>
</g>
<!-- OrderItem -->
<g id="OrderItem" class="node">
<title>OrderItem</title>
<ellipse fill="none" stroke="black" stroke-width="0" cx="300.52" cy="-1879.53" rx="248.8" ry="257.27"/>
<polygon fill="#1d71b8" stroke="transparent" points="126.52,-1999.53 126.52,-2059.53 474.52,-2059.53 474.52,-1999.53 126.52,-1999.53"/>
<polygon fill="none" stroke="#29235c" points="126.52,-1999.53 126.52,-2059.53 474.52,-2059.53 474.52,-1999.53 126.52,-1999.53"/>
<text text-anchor="start" x="166.27" y="-2020.73" font-family="Helvetica,sans-Serif" font-weight="bold" font-size="32.00" fill="#ffffff"> &#160;&#160;&#160;&#160;&#160;&#160;OrderItem &#160;&#160;&#160;&#160;&#160;&#160;</text>
<polygon fill="#e7e2dd" stroke="transparent" points="126.52,-1939.53 126.52,-1999.53 474.52,-1999.53 474.52,-1939.53 126.52,-1939.53"/>
<polygon fill="none" stroke="#29235c" points="126.52,-1939.53 126.52,-1999.53 474.52,-1999.53 474.52,-1939.53 126.52,-1939.53"/>
<text text-anchor="start" x="137.52" y="-1960.73" font-family="Helvetica,sans-Serif" font-weight="bold" font-size="32.00" fill="#29235c">id</text>
<text text-anchor="start" x="162.41" y="-1960.73" font-family="Helvetica,sans-Serif" font-size="32.00" fill="#29235c"> &#160;&#160;&#160;</text>
<text text-anchor="start" x="321.3" y="-1960.73" font-family="Helvetica,sans-Serif" font-style="italic" font-size="32.00" fill="#29235c">INTEGER</text>
<polygon fill="#e7e2dd" stroke="transparent" points="126.52,-1879.53 126.52,-1939.53 474.52,-1939.53 474.52,-1879.53 126.52,-1879.53"/>
<polygon fill="none" stroke="#29235c" points="126.52,-1879.53 126.52,-1939.53 474.52,-1939.53 474.52,-1879.53 126.52,-1879.53"/>
<text text-anchor="start" x="137.52" y="-1899.73" font-family="Helvetica,sans-Serif" font-size="32.00" fill="#29235c">order_id &#160;&#160;&#160;</text>
<text text-anchor="start" x="321.3" y="-1900.73" font-family="Helvetica,sans-Serif" font-style="italic" font-size="32.00" fill="#29235c">INTEGER</text>
<polygon fill="#e7e2dd" stroke="transparent" points="126.52,-1819.53 126.52,-1879.53 474.52,-1879.53 474.52,-1819.53 126.52,-1819.53"/>
<polygon fill="none" stroke="#29235c" points="126.52,-1819.53 126.52,-1879.53 474.52,-1879.53 474.52,-1819.53 126.52,-1819.53"/>
<text text-anchor="start" x="137.05" y="-1839.73" font-family="Helvetica,sans-Serif" font-size="32.00" fill="#29235c">product_id &#160;&#160;&#160;</text>
<text text-anchor="start" x="321.41" y="-1840.73" font-family="Helvetica,sans-Serif" font-style="italic" font-size="32.00" fill="#29235c">INTEGER</text>
<polygon fill="#e7e2dd" stroke="transparent" points="126.52,-1759.53 126.52,-1819.53 474.52,-1819.53 474.52,-1759.53 126.52,-1759.53"/>
<polygon fill="none" stroke="#29235c" points="126.52,-1759.53 126.52,-1819.53 474.52,-1819.53 474.52,-1759.53 126.52,-1759.53"/>
<text text-anchor="start" x="137.52" y="-1779.73" font-family="Helvetica,sans-Serif" font-size="32.00" fill="#29235c">quantity &#160;&#160;&#160;</text>
<text text-anchor="start" x="321.3" y="-1780.73" font-family="Helvetica,sans-Serif" font-style="italic" font-size="32.00" fill="#29235c">INTEGER</text>
<polygon fill="#e7e2dd" stroke="transparent" points="126.52,-1699.53 126.52,-1759.53 474.52,-1759.53 474.52,-1699.53 126.52,-1699.53"/>
<polygon fill="none" stroke="#29235c" points="126.52,-1699.53 126.52,-1759.53 474.52,-1759.53 474.52,-1699.53 126.52,-1699.53"/>
<text text-anchor="start" x="137.52" y="-1719.73" font-family="Helvetica,sans-Serif" font-size="32.00" fill="#29235c">amount &#160;&#160;&#160;</text>
<text text-anchor="start" x="360.4" y="-1720.73" font-family="Helvetica,sans-Serif" font-style="italic" font-size="32.00" fill="#29235c">FLOAT</text>
<polygon fill="none" stroke="#29235c" stroke-width="2" points="125.52,-1698.53 125.52,-2060.53 475.52,-2060.53 475.52,-1698.53 125.52,-1698.53"/>
</g>
<!-- OrderItem&#45;&gt;Product -->
<!-- OrderItem&#45;&gt;Product -->
<g id="edge14" class="edge">
<title>OrderItem:e&#45;&gt;Product:w</title>
<path fill="none" stroke="#29235c" stroke-width="3" d="M475.52,-1849.53C594.71,-1849.53 563.74,-1725.74 601.04,-1612.53 688.87,-1345.97 506.24,-1008.88 775.62,-1000.69"/>
<polygon fill="#29235c" stroke="#29235c" stroke-width="3" points="775.87,-1004.18 785.82,-1000.53 775.76,-997.18 775.87,-1004.18"/>
<text text-anchor="middle" x="779.59" y="-971.73" font-family="Helvetica,sans-Serif" font-size="32.00" fill="#29235c">*</text>
<text text-anchor="middle" x="466.63" y="-1820.73" font-family="Helvetica,sans-Serif" font-size="32.00" fill="#29235c">1</text>
</g>
<!-- OrderItem&#45;&gt;Order -->
<!-- OrderItem&#45;&gt;Order -->
<g id="edge12" class="edge">
<title>OrderItem:e&#45;&gt;Order:w</title>
<path fill="none" stroke="#29235c" stroke-width="3" d="M475.52,-1909.53C655.38,-1909.53 614.15,-2159.73 785.59,-2169.25"/>
<polygon fill="#29235c" stroke="#29235c" stroke-width="3" points="785.72,-2172.76 795.82,-2169.53 785.92,-2165.76 785.72,-2172.76"/>
<text text-anchor="middle" x="802.04" y="-2179.13" font-family="Helvetica,sans-Serif" font-size="32.00" fill="#29235c">*</text>
<text text-anchor="middle" x="466.63" y="-1880.73" font-family="Helvetica,sans-Serif" font-size="32.00" fill="#29235c">1</text>
</g>
<!-- Payment -->
<g id="Payment" class="node">
<title>Payment</title>
<ellipse fill="none" stroke="black" stroke-width="0" cx="300.52" cy="-2369.53" rx="300.54" ry="214.92"/>
<polygon fill="#1d71b8" stroke="transparent" points="90.52,-2459.53 90.52,-2519.53 511.52,-2519.53 511.52,-2459.53 90.52,-2459.53"/>
<polygon fill="none" stroke="#29235c" points="90.52,-2459.53 90.52,-2519.53 511.52,-2519.53 511.52,-2459.53 90.52,-2459.53"/>
<text text-anchor="start" x="175.64" y="-2480.73" font-family="Helvetica,sans-Serif" font-weight="bold" font-size="32.00" fill="#ffffff"> &#160;&#160;&#160;&#160;&#160;&#160;Payment &#160;&#160;&#160;&#160;&#160;&#160;</text>
<polygon fill="#e7e2dd" stroke="transparent" points="90.52,-2399.53 90.52,-2459.53 511.52,-2459.53 511.52,-2399.53 90.52,-2399.53"/>
<polygon fill="none" stroke="#29235c" points="90.52,-2399.53 90.52,-2459.53 511.52,-2459.53 511.52,-2399.53 90.52,-2399.53"/>
<text text-anchor="start" x="101.52" y="-2420.73" font-family="Helvetica,sans-Serif" font-weight="bold" font-size="32.00" fill="#29235c">id</text>
<text text-anchor="start" x="126.41" y="-2420.73" font-family="Helvetica,sans-Serif" font-size="32.00" fill="#29235c"> &#160;&#160;&#160;</text>
<text text-anchor="start" x="358.3" y="-2420.73" font-family="Helvetica,sans-Serif" font-style="italic" font-size="32.00" fill="#29235c">INTEGER</text>
<polygon fill="#e7e2dd" stroke="transparent" points="90.52,-2339.53 90.52,-2399.53 511.52,-2399.53 511.52,-2339.53 90.52,-2339.53"/>
<polygon fill="none" stroke="#29235c" points="90.52,-2339.53 90.52,-2399.53 511.52,-2399.53 511.52,-2339.53 90.52,-2339.53"/>
<text text-anchor="start" x="101.52" y="-2359.73" font-family="Helvetica,sans-Serif" font-size="32.00" fill="#29235c">order_id &#160;&#160;&#160;</text>
<text text-anchor="start" x="358.3" y="-2360.73" font-family="Helvetica,sans-Serif" font-style="italic" font-size="32.00" fill="#29235c">INTEGER</text>
<polygon fill="#e7e2dd" stroke="transparent" points="90.52,-2279.53 90.52,-2339.53 511.52,-2339.53 511.52,-2279.53 90.52,-2279.53"/>
<polygon fill="none" stroke="#29235c" points="90.52,-2279.53 90.52,-2339.53 511.52,-2339.53 511.52,-2279.53 90.52,-2279.53"/>
<text text-anchor="start" x="101.36" y="-2299.73" font-family="Helvetica,sans-Serif" font-size="32.00" fill="#29235c">payment_date &#160;&#160;&#160;</text>
<text text-anchor="start" x="339.14" y="-2300.73" font-family="Helvetica,sans-Serif" font-style="italic" font-size="32.00" fill="#29235c">DATETIME</text>
<polygon fill="#e7e2dd" stroke="transparent" points="90.52,-2219.53 90.52,-2279.53 511.52,-2279.53 511.52,-2219.53 90.52,-2219.53"/>
<polygon fill="none" stroke="#29235c" points="90.52,-2219.53 90.52,-2279.53 511.52,-2279.53 511.52,-2219.53 90.52,-2219.53"/>
<text text-anchor="start" x="101.52" y="-2239.73" font-family="Helvetica,sans-Serif" font-size="32.00" fill="#29235c">amount_paid &#160;&#160;&#160;</text>
<text text-anchor="start" x="397.4" y="-2240.73" font-family="Helvetica,sans-Serif" font-style="italic" font-size="32.00" fill="#29235c">FLOAT</text>
<polygon fill="none" stroke="#29235c" stroke-width="2" points="89.02,-2218.53 89.02,-2520.53 512.02,-2520.53 512.02,-2218.53 89.02,-2218.53"/>
</g>
<!-- Payment&#45;&gt;Order -->
<!-- Payment&#45;&gt;Order -->
<g id="edge16" class="edge">
<title>Payment:e&#45;&gt;Order:w</title>
<path fill="none" stroke="#29235c" stroke-width="3" d="M512.52,-2369.53C663.18,-2369.53 642.72,-2178.42 785.7,-2169.83"/>
<polygon fill="#29235c" stroke="#29235c" stroke-width="3" points="785.92,-2173.33 795.82,-2169.53 785.72,-2166.33 785.92,-2173.33"/>
<text text-anchor="middle" x="802.04" y="-2140.73" font-family="Helvetica,sans-Serif" font-size="32.00" fill="#29235c">*</text>
<text text-anchor="middle" x="503.63" y="-2379.13" font-family="Helvetica,sans-Serif" font-size="32.00" fill="#29235c">1</text>
</g>
<!-- ProductPromotion -->
<g id="ProductPromotion" class="node">
<title>ProductPromotion</title>
<ellipse fill="none" stroke="black" stroke-width="0" cx="300.52" cy="-535.53" rx="287.17" ry="172.57"/>
<polygon fill="#1d71b8" stroke="transparent" points="99.52,-595.53 99.52,-655.53 501.52,-655.53 501.52,-595.53 99.52,-595.53"/>
<polygon fill="none" stroke="#29235c" points="99.52,-595.53 99.52,-655.53 501.52,-655.53 501.52,-595.53 99.52,-595.53"/>
<text text-anchor="start" x="110.25" y="-616.73" font-family="Helvetica,sans-Serif" font-weight="bold" font-size="32.00" fill="#ffffff"> &#160;&#160;&#160;&#160;&#160;&#160;ProductPromotion &#160;&#160;&#160;&#160;&#160;&#160;</text>
<polygon fill="#e7e2dd" stroke="transparent" points="99.52,-535.53 99.52,-595.53 501.52,-595.53 501.52,-535.53 99.52,-535.53"/>
<polygon fill="none" stroke="#29235c" points="99.52,-535.53 99.52,-595.53 501.52,-595.53 501.52,-535.53 99.52,-535.53"/>
<text text-anchor="start" x="110.52" y="-556.73" font-family="Helvetica,sans-Serif" font-weight="bold" font-size="32.00" fill="#29235c">id</text>
<text text-anchor="start" x="135.41" y="-556.73" font-family="Helvetica,sans-Serif" font-size="32.00" fill="#29235c"> &#160;&#160;&#160;</text>
<text text-anchor="start" x="348.3" y="-556.73" font-family="Helvetica,sans-Serif" font-style="italic" font-size="32.00" fill="#29235c">INTEGER</text>
<polygon fill="#e7e2dd" stroke="transparent" points="99.52,-475.53 99.52,-535.53 501.52,-535.53 501.52,-475.53 99.52,-475.53"/>
<polygon fill="none" stroke="#29235c" points="99.52,-475.53 99.52,-535.53 501.52,-535.53 501.52,-475.53 99.52,-475.53"/>
<text text-anchor="start" x="110.52" y="-495.73" font-family="Helvetica,sans-Serif" font-size="32.00" fill="#29235c">product_id &#160;&#160;&#160;</text>
<text text-anchor="start" x="348.3" y="-496.73" font-family="Helvetica,sans-Serif" font-style="italic" font-size="32.00" fill="#29235c">INTEGER</text>
<polygon fill="#e7e2dd" stroke="transparent" points="99.52,-415.53 99.52,-475.53 501.52,-475.53 501.52,-415.53 99.52,-415.53"/>
<polygon fill="none" stroke="#29235c" points="99.52,-415.53 99.52,-475.53 501.52,-475.53 501.52,-415.53 99.52,-415.53"/>
<text text-anchor="start" x="110.52" y="-435.73" font-family="Helvetica,sans-Serif" font-size="32.00" fill="#29235c">promotion_id &#160;&#160;&#160;</text>
<text text-anchor="start" x="348.3" y="-436.73" font-family="Helvetica,sans-Serif" font-style="italic" font-size="32.00" fill="#29235c">INTEGER</text>
<polygon fill="none" stroke="#29235c" stroke-width="2" points="98.52,-414.53 98.52,-656.53 502.52,-656.53 502.52,-414.53 98.52,-414.53"/>
</g>
<!-- ProductPromotion&#45;&gt;Product -->
<!-- ProductPromotion&#45;&gt;Product -->
<g id="edge18" class="edge">
<title>ProductPromotion:e&#45;&gt;Product:w</title>
<path fill="none" stroke="#29235c" stroke-width="3" d="M502.52,-505.53C625.8,-505.53 657.37,-973.83 775.63,-999.44"/>
<polygon fill="#29235c" stroke="#29235c" stroke-width="3" points="775.5,-1002.95 785.82,-1000.53 776.25,-995.99 775.5,-1002.95"/>
<text text-anchor="middle" x="779.59" y="-1010.13" font-family="Helvetica,sans-Serif" font-size="32.00" fill="#29235c">*</text>
<text text-anchor="middle" x="493.63" y="-476.73" font-family="Helvetica,sans-Serif" font-size="32.00" fill="#29235c">1</text>
</g>
<!-- Promotion -->
<g id="Promotion" class="node">
<title>Promotion</title>
<ellipse fill="none" stroke="black" stroke-width="0" cx="982.82" cy="-535.53" rx="325.95" ry="172.57"/>
<polygon fill="#1d71b8" stroke="transparent" points="754.82,-595.53 754.82,-655.53 1211.82,-655.53 1211.82,-595.53 754.82,-595.53"/>
<polygon fill="none" stroke="#29235c" points="754.82,-595.53 754.82,-655.53 1211.82,-655.53 1211.82,-595.53 754.82,-595.53"/>
<text text-anchor="start" x="848.17" y="-616.73" font-family="Helvetica,sans-Serif" font-weight="bold" font-size="32.00" fill="#ffffff"> &#160;&#160;&#160;&#160;&#160;&#160;Promotion &#160;&#160;&#160;&#160;&#160;&#160;</text>
<polygon fill="#e7e2dd" stroke="transparent" points="754.82,-535.53 754.82,-595.53 1211.82,-595.53 1211.82,-535.53 754.82,-535.53"/>
<polygon fill="none" stroke="#29235c" points="754.82,-535.53 754.82,-595.53 1211.82,-595.53 1211.82,-535.53 754.82,-535.53"/>
<text text-anchor="start" x="765.82" y="-556.73" font-family="Helvetica,sans-Serif" font-weight="bold" font-size="32.00" fill="#29235c">id</text>
<text text-anchor="start" x="790.71" y="-556.73" font-family="Helvetica,sans-Serif" font-size="32.00" fill="#29235c"> &#160;&#160;&#160;</text>
<text text-anchor="start" x="1058.6" y="-556.73" font-family="Helvetica,sans-Serif" font-style="italic" font-size="32.00" fill="#29235c">INTEGER</text>
<polygon fill="#e7e2dd" stroke="transparent" points="754.82,-475.53 754.82,-535.53 1211.82,-535.53 1211.82,-475.53 754.82,-475.53"/>
<polygon fill="none" stroke="#29235c" points="754.82,-475.53 754.82,-535.53 1211.82,-535.53 1211.82,-475.53 754.82,-475.53"/>
<text text-anchor="start" x="765.82" y="-495.73" font-family="Helvetica,sans-Serif" font-size="32.00" fill="#29235c">name &#160;&#160;&#160;</text>
<text text-anchor="start" x="969.72" y="-496.73" font-family="Helvetica,sans-Serif" font-style="italic" font-size="32.00" fill="#29235c">VARCHAR(100)</text>
<polygon fill="#e7e2dd" stroke="transparent" points="754.82,-415.53 754.82,-475.53 1211.82,-475.53 1211.82,-415.53 754.82,-415.53"/>
<polygon fill="none" stroke="#29235c" points="754.82,-415.53 754.82,-475.53 1211.82,-475.53 1211.82,-415.53 754.82,-415.53"/>
<text text-anchor="start" x="765.53" y="-435.73" font-family="Helvetica,sans-Serif" font-size="32.00" fill="#29235c">discount_percentage &#160;&#160;&#160;</text>
<text text-anchor="start" x="1097.76" y="-436.73" font-family="Helvetica,sans-Serif" font-style="italic" font-size="32.00" fill="#29235c">FLOAT</text>
<polygon fill="none" stroke="#29235c" stroke-width="2" points="753.32,-414.53 753.32,-656.53 1212.32,-656.53 1212.32,-414.53 753.32,-414.53"/>
</g>
<!-- ProductPromotion&#45;&gt;Promotion -->
<!-- ProductPromotion&#45;&gt;Promotion -->
<g id="edge20" class="edge">
<title>ProductPromotion:e&#45;&gt;Promotion:w</title>
<path fill="none" stroke="#29235c" stroke-width="3" d="M502.52,-445.53C622.78,-445.53 629.74,-558.83 743.58,-565.25"/>
<polygon fill="#29235c" stroke="#29235c" stroke-width="3" points="743.72,-568.76 753.82,-565.53 743.92,-561.76 743.72,-568.76"/>
<text text-anchor="middle" x="760.04" y="-536.73" font-family="Helvetica,sans-Serif" font-size="32.00" fill="#29235c">*</text>
<text text-anchor="middle" x="493.63" y="-416.73" font-family="Helvetica,sans-Serif" font-size="32.00" fill="#29235c">1</text>
</g>
<!-- Shipping -->
<g id="Shipping" class="node">
<title>Shipping</title>
<ellipse fill="none" stroke="black" stroke-width="0" cx="300.52" cy="-2817.53" rx="297.88" ry="214.92"/>
<polygon fill="#1d71b8" stroke="transparent" points="92.52,-2907.53 92.52,-2967.53 509.52,-2967.53 509.52,-2907.53 92.52,-2907.53"/>
<polygon fill="none" stroke="#29235c" points="92.52,-2907.53 92.52,-2967.53 509.52,-2967.53 509.52,-2907.53 92.52,-2907.53"/>
<text text-anchor="start" x="176.53" y="-2928.73" font-family="Helvetica,sans-Serif" font-weight="bold" font-size="32.00" fill="#ffffff"> &#160;&#160;&#160;&#160;&#160;&#160;Shipping &#160;&#160;&#160;&#160;&#160;&#160;</text>
<polygon fill="#e7e2dd" stroke="transparent" points="92.52,-2847.53 92.52,-2907.53 509.52,-2907.53 509.52,-2847.53 92.52,-2847.53"/>
<polygon fill="none" stroke="#29235c" points="92.52,-2847.53 92.52,-2907.53 509.52,-2907.53 509.52,-2847.53 92.52,-2847.53"/>
<text text-anchor="start" x="103.52" y="-2868.73" font-family="Helvetica,sans-Serif" font-weight="bold" font-size="32.00" fill="#29235c">id</text>
<text text-anchor="start" x="128.41" y="-2868.73" font-family="Helvetica,sans-Serif" font-size="32.00" fill="#29235c"> &#160;&#160;&#160;</text>
<text text-anchor="start" x="356.3" y="-2868.73" font-family="Helvetica,sans-Serif" font-style="italic" font-size="32.00" fill="#29235c">INTEGER</text>
<polygon fill="#e7e2dd" stroke="transparent" points="92.52,-2787.53 92.52,-2847.53 509.52,-2847.53 509.52,-2787.53 92.52,-2787.53"/>
<polygon fill="none" stroke="#29235c" points="92.52,-2787.53 92.52,-2847.53 509.52,-2847.53 509.52,-2787.53 92.52,-2787.53"/>
<text text-anchor="start" x="103.52" y="-2807.73" font-family="Helvetica,sans-Serif" font-size="32.00" fill="#29235c">order_id &#160;&#160;&#160;</text>
<text text-anchor="start" x="356.3" y="-2808.73" font-family="Helvetica,sans-Serif" font-style="italic" font-size="32.00" fill="#29235c">INTEGER</text>
<polygon fill="#e7e2dd" stroke="transparent" points="92.52,-2727.53 92.52,-2787.53 509.52,-2787.53 509.52,-2727.53 92.52,-2727.53"/>
<polygon fill="none" stroke="#29235c" points="92.52,-2727.53 92.52,-2787.53 509.52,-2787.53 509.52,-2727.53 92.52,-2727.53"/>
<text text-anchor="start" x="103.52" y="-2747.73" font-family="Helvetica,sans-Serif" font-size="32.00" fill="#29235c">address &#160;&#160;&#160;</text>
<text text-anchor="start" x="267.42" y="-2748.73" font-family="Helvetica,sans-Serif" font-style="italic" font-size="32.00" fill="#29235c">VARCHAR(255)</text>
<polygon fill="#e7e2dd" stroke="transparent" points="92.52,-2667.53 92.52,-2727.53 509.52,-2727.53 509.52,-2667.53 92.52,-2667.53"/>
<polygon fill="none" stroke="#29235c" points="92.52,-2667.53 92.52,-2727.53 509.52,-2727.53 509.52,-2667.53 92.52,-2667.53"/>
<text text-anchor="start" x="103.14" y="-2687.73" font-family="Helvetica,sans-Serif" font-size="32.00" fill="#29235c">shipping_date &#160;&#160;&#160;</text>
<text text-anchor="start" x="337.14" y="-2688.73" font-family="Helvetica,sans-Serif" font-style="italic" font-size="32.00" fill="#29235c">DATETIME</text>
<polygon fill="none" stroke="#29235c" stroke-width="2" points="91.02,-2666.53 91.02,-2968.53 510.02,-2968.53 510.02,-2666.53 91.02,-2666.53"/>
</g>
<!-- Shipping&#45;&gt;Order -->
<!-- Shipping&#45;&gt;Order -->
<g id="edge22" class="edge">
<title>Shipping:e&#45;&gt;Order:w</title>
<path fill="none" stroke="#29235c" stroke-width="3" d="M510.52,-2817.53C821.66,-2817.53 488.78,-2184.01 785.46,-2169.78"/>
<polygon fill="#29235c" stroke="#29235c" stroke-width="3" points="785.9,-2173.27 795.82,-2169.53 785.74,-2166.27 785.9,-2173.27"/>
<text text-anchor="middle" x="789.59" y="-2179.13" font-family="Helvetica,sans-Serif" font-size="32.00" fill="#29235c">*</text>
<text text-anchor="middle" x="501.63" y="-2827.13" font-family="Helvetica,sans-Serif" font-size="32.00" fill="#29235c">1</text>
</g>
<!-- Supplier -->
<g id="Supplier" class="node">
<title>Supplier</title>
<ellipse fill="none" stroke="black" stroke-width="0" cx="982.82" cy="-172.53" rx="345.55" ry="172.57"/>
<polygon fill="#1d71b8" stroke="transparent" points="740.82,-232.53 740.82,-292.53 1225.82,-292.53 1225.82,-232.53 740.82,-232.53"/>
<polygon fill="none" stroke="#29235c" points="740.82,-232.53 740.82,-292.53 1225.82,-292.53 1225.82,-232.53 740.82,-232.53"/>
<text text-anchor="start" x="862.39" y="-253.73" font-family="Helvetica,sans-Serif" font-weight="bold" font-size="32.00" fill="#ffffff"> &#160;&#160;&#160;&#160;&#160;&#160;Supplier &#160;&#160;&#160;&#160;&#160;&#160;</text>
<polygon fill="#e7e2dd" stroke="transparent" points="740.82,-172.53 740.82,-232.53 1225.82,-232.53 1225.82,-172.53 740.82,-172.53"/>
<polygon fill="none" stroke="#29235c" points="740.82,-172.53 740.82,-232.53 1225.82,-232.53 1225.82,-172.53 740.82,-172.53"/>
<text text-anchor="start" x="751.82" y="-193.73" font-family="Helvetica,sans-Serif" font-weight="bold" font-size="32.00" fill="#29235c">id</text>
<text text-anchor="start" x="776.71" y="-193.73" font-family="Helvetica,sans-Serif" font-size="32.00" fill="#29235c"> &#160;&#160;&#160;</text>
<text text-anchor="start" x="1072.6" y="-193.73" font-family="Helvetica,sans-Serif" font-style="italic" font-size="32.00" fill="#29235c">INTEGER</text>
<polygon fill="#e7e2dd" stroke="transparent" points="740.82,-112.53 740.82,-172.53 1225.82,-172.53 1225.82,-112.53 740.82,-112.53"/>
<polygon fill="none" stroke="#29235c" points="740.82,-112.53 740.82,-172.53 1225.82,-172.53 1225.82,-112.53 740.82,-112.53"/>
<text text-anchor="start" x="751.82" y="-132.73" font-family="Helvetica,sans-Serif" font-size="32.00" fill="#29235c">name &#160;&#160;&#160;</text>
<text text-anchor="start" x="983.72" y="-133.73" font-family="Helvetica,sans-Serif" font-style="italic" font-size="32.00" fill="#29235c">VARCHAR(100)</text>
<polygon fill="#e7e2dd" stroke="transparent" points="740.82,-52.53 740.82,-112.53 1225.82,-112.53 1225.82,-52.53 740.82,-52.53"/>
<polygon fill="none" stroke="#29235c" points="740.82,-52.53 740.82,-112.53 1225.82,-112.53 1225.82,-52.53 740.82,-52.53"/>
<text text-anchor="start" x="751.34" y="-72.73" font-family="Helvetica,sans-Serif" font-size="32.00" fill="#29235c">contact_email &#160;&#160;&#160;</text>
<text text-anchor="start" x="983.77" y="-73.73" font-family="Helvetica,sans-Serif" font-style="italic" font-size="32.00" fill="#29235c">VARCHAR(100)</text>
<polygon fill="none" stroke="#29235c" stroke-width="2" points="739.32,-51.53 739.32,-293.53 1226.32,-293.53 1226.32,-51.53 739.32,-51.53"/>
</g>
<!-- SupplierProduct -->
<g id="SupplierProduct" class="node">
<title>SupplierProduct</title>
<ellipse fill="none" stroke="black" stroke-width="0" cx="300.52" cy="-172.53" rx="267.07" ry="172.57"/>
<polygon fill="#1d71b8" stroke="transparent" points="113.52,-232.53 113.52,-292.53 487.52,-292.53 487.52,-232.53 113.52,-232.53"/>
<polygon fill="none" stroke="#29235c" points="113.52,-232.53 113.52,-292.53 487.52,-292.53 487.52,-232.53 113.52,-232.53"/>
<text text-anchor="start" x="124.47" y="-253.73" font-family="Helvetica,sans-Serif" font-weight="bold" font-size="32.00" fill="#ffffff"> &#160;&#160;&#160;&#160;&#160;&#160;SupplierProduct &#160;&#160;&#160;&#160;&#160;&#160;</text>
<polygon fill="#e7e2dd" stroke="transparent" points="113.52,-172.53 113.52,-232.53 487.52,-232.53 487.52,-172.53 113.52,-172.53"/>
<polygon fill="none" stroke="#29235c" points="113.52,-172.53 113.52,-232.53 487.52,-232.53 487.52,-172.53 113.52,-172.53"/>
<text text-anchor="start" x="124.52" y="-193.73" font-family="Helvetica,sans-Serif" font-weight="bold" font-size="32.00" fill="#29235c">id</text>
<text text-anchor="start" x="149.41" y="-193.73" font-family="Helvetica,sans-Serif" font-size="32.00" fill="#29235c"> &#160;&#160;&#160;</text>
<text text-anchor="start" x="334.3" y="-193.73" font-family="Helvetica,sans-Serif" font-style="italic" font-size="32.00" fill="#29235c">INTEGER</text>
<polygon fill="#e7e2dd" stroke="transparent" points="113.52,-112.53 113.52,-172.53 487.52,-172.53 487.52,-112.53 113.52,-112.53"/>
<polygon fill="none" stroke="#29235c" points="113.52,-112.53 113.52,-172.53 487.52,-172.53 487.52,-112.53 113.52,-112.53"/>
<text text-anchor="start" x="124.52" y="-132.73" font-family="Helvetica,sans-Serif" font-size="32.00" fill="#29235c">supplier_id &#160;&#160;&#160;</text>
<text text-anchor="start" x="334.3" y="-133.73" font-family="Helvetica,sans-Serif" font-style="italic" font-size="32.00" fill="#29235c">INTEGER</text>
<polygon fill="#e7e2dd" stroke="transparent" points="113.52,-52.53 113.52,-112.53 487.52,-112.53 487.52,-52.53 113.52,-52.53"/>
<polygon fill="none" stroke="#29235c" points="113.52,-52.53 113.52,-112.53 487.52,-112.53 487.52,-52.53 113.52,-52.53"/>
<text text-anchor="start" x="124.52" y="-72.73" font-family="Helvetica,sans-Serif" font-size="32.00" fill="#29235c">product_id &#160;&#160;&#160;</text>
<text text-anchor="start" x="334.3" y="-73.73" font-family="Helvetica,sans-Serif" font-style="italic" font-size="32.00" fill="#29235c">INTEGER</text>
<polygon fill="none" stroke="#29235c" stroke-width="2" points="112.52,-51.53 112.52,-293.53 488.52,-293.53 488.52,-51.53 112.52,-51.53"/>
</g>
<!-- SupplierProduct&#45;&gt;Product -->
<!-- SupplierProduct&#45;&gt;Product -->
<g id="edge24" class="edge">
<title>SupplierProduct:e&#45;&gt;Product:w</title>
<path fill="none" stroke="#29235c" stroke-width="3" d="M488.52,-82.53C618.93,-82.53 569.27,-227.05 601.04,-353.53 673.03,-640.18 491.11,-992.18 775.5,-1000.39"/>
<polygon fill="#29235c" stroke="#29235c" stroke-width="3" points="775.77,-1003.89 785.82,-1000.53 775.87,-996.89 775.77,-1003.89"/>
<text text-anchor="middle" x="792.04" y="-971.73" font-family="Helvetica,sans-Serif" font-size="32.00" fill="#29235c">*</text>
<text text-anchor="middle" x="479.63" y="-53.73" font-family="Helvetica,sans-Serif" font-size="32.00" fill="#29235c">1</text>
</g>
<!-- SupplierProduct&#45;&gt;Supplier -->
<!-- SupplierProduct&#45;&gt;Supplier -->
<g id="edge26" class="edge">
<title>SupplierProduct:e&#45;&gt;Supplier:w</title>
<path fill="none" stroke="#29235c" stroke-width="3" d="M488.52,-142.53C599.87,-142.53 623.59,-198.96 729.64,-202.37"/>
<polygon fill="#29235c" stroke="#29235c" stroke-width="3" points="729.76,-205.87 739.82,-202.53 729.87,-198.88 729.76,-205.87"/>
<text text-anchor="middle" x="746.04" y="-173.73" font-family="Helvetica,sans-Serif" font-size="32.00" fill="#29235c">*</text>
<text text-anchor="middle" x="479.63" y="-113.73" font-family="Helvetica,sans-Serif" font-size="32.00" fill="#29235c">1</text>
</g>
</g>
</svg>
